<svg width="28" height="28" viewBox="0 0 28 28" fill="#43494D" xmlns="http://www.w3.org/2000/svg">
<path fill-rule="evenodd" clip-rule="evenodd" d="M14 4.2C14.735 4.2 15.3308 4.79585 15.3308 5.53086V12.6691H22.4691C23.2041 12.6691 23.7999 13.265 23.7999 14C23.7999 14.735 23.2041 15.3309 22.4691 15.3309H15.3308V22.4691C15.3308 23.2041 14.735 23.8 14 23.8C13.2649 23.8 12.6691 23.2041 12.6691 22.4691V15.3309H5.53082C4.7958 15.3309 4.19995 14.735 4.19995 14C4.19995 13.265 4.7958 12.6691 5.53082 12.6691H12.6691V5.53086C12.6691 4.79585 13.2649 4.2 14 4.2Z" />
</svg>
