<svg width="20" height="20" viewBox="0 0 20 20" fill="none" xmlns="http://www.w3.org/2000/svg">
<path fill-rule="evenodd" clip-rule="evenodd" d="M9.99995 0.199997C10.735 0.199997 11.3308 0.795845 11.3308 1.53086V8.66913H18.4691C19.2041 8.66913 19.7999 9.26498 19.7999 10C19.7999 10.735 19.2041 11.3309 18.4691 11.3309H11.3308V18.4691C11.3308 19.2041 10.735 19.8 9.99995 19.8C9.26494 19.8 8.66909 19.2041 8.66909 18.4691V11.3309H1.53082C0.795799 11.3309 0.199951 10.735 0.199951 10C0.199951 9.26498 0.795799 8.66913 1.53082 8.66913H8.66909V1.53086C8.66909 0.795845 9.26494 0.199997 9.99995 0.199997Z" fill="#43494D"/>
</svg>
