<svg width="29" height="28" viewBox="0 0 29 28" fill="none" xmlns="http://www.w3.org/2000/svg">
<path fill-rule="evenodd" clip-rule="evenodd" d="M11.7088 4.44438C11.7088 4.44454 11.7088 4.44422 11.7088 4.44438L11.5541 5.36546C12.1394 5.3507 12.7247 5.34333 13.31 5.34333C14.6905 5.34333 16.0723 5.36799 17.4539 5.41681L17.2904 4.45063C17.1908 3.83973 17.133 3.67934 17.0582 3.59317C17.041 3.57308 16.8778 3.38333 16.0284 3.38333H12.9717C12.1094 3.38333 11.9521 3.56712 11.9411 3.58005C11.9409 3.58024 11.9412 3.57993 11.9411 3.58005C11.9222 3.6015 11.8835 3.65576 11.8395 3.80203C11.7919 3.96054 11.758 4.15202 11.7088 4.44438ZM19.5998 5.512C21.4374 5.61005 23.2731 5.75038 25.1036 5.93178C25.6806 5.98896 26.1021 6.50313 26.0449 7.08021C25.9877 7.65728 25.4736 8.07873 24.8965 8.02154C21.0449 7.63985 17.1712 7.44333 13.31 7.44333C11.0354 7.44333 8.76067 7.5582 6.48555 7.78801L6.48248 7.78832L4.10248 8.02165C3.52535 8.07823 3.01162 7.65624 2.95504 7.07911C2.89846 6.50198 3.32045 5.98825 3.89758 5.93167L6.27607 5.69848C7.32067 5.59299 8.36534 5.511 9.41007 5.4525L9.63786 4.09609C9.6426 4.06798 9.64751 4.03814 9.65253 4.00765C9.73146 3.52822 9.85646 2.76893 10.3656 2.19155C10.9684 1.50807 11.8754 1.28333 12.9717 1.28333H16.0284C17.1404 1.28333 18.0458 1.52713 18.6443 2.21682C19.1534 2.80348 19.2751 3.56412 19.3506 4.0359C19.3547 4.06139 19.3587 4.08603 19.3625 4.10976L19.5998 5.512ZM6.44073 9.61551C7.01942 9.57815 7.51883 10.017 7.55618 10.5957L8.31413 22.3383C8.31419 22.3392 8.31426 22.3402 8.31433 22.3411C8.34742 22.8134 8.37473 23.1741 8.43748 23.4857C8.49818 23.7871 8.57894 23.9665 8.67108 24.0864C8.8176 24.2772 9.23332 24.6167 10.755 24.6167H18.245C19.7667 24.6167 20.1824 24.2772 20.329 24.0864C20.4211 23.9665 20.5019 23.7871 20.5626 23.4857C20.6253 23.1741 20.6526 22.8134 20.6857 22.3411C20.6858 22.3402 20.6859 22.3392 20.6859 22.3383L21.4439 10.5957C21.4812 10.017 21.9806 9.57815 22.5593 9.61551C23.138 9.65286 23.5769 10.1523 23.5395 10.731L22.7812 22.4793L22.7808 22.485L22.7789 22.5119C22.7484 22.9475 22.7139 23.44 22.6212 23.9003C22.5244 24.3809 22.3514 24.9008 21.9944 25.3656C21.2426 26.3444 19.9783 26.7167 18.245 26.7167H10.755C9.02174 26.7167 7.75745 26.3444 7.00564 25.3656C6.64861 24.9008 6.47562 24.3809 6.37882 23.9003C6.28611 23.44 6.25164 22.9476 6.22114 22.5119L6.21926 22.485L6.21887 22.4793L5.46054 10.731C5.42319 10.1523 5.86203 9.65286 6.44073 9.61551ZM10.5334 14.5833C10.5334 14.0034 11.0035 13.5333 11.5834 13.5333H17.4167C17.9966 13.5333 18.4667 14.0034 18.4667 14.5833C18.4667 15.1632 17.9966 15.6333 17.4167 15.6333H11.5834C11.0035 15.6333 10.5334 15.1632 10.5334 14.5833ZM11.5017 19.25C11.5017 18.6701 11.9718 18.2 12.5517 18.2H16.4367C17.0166 18.2 17.4867 18.6701 17.4867 19.25C17.4867 19.8299 17.0166 20.3 16.4367 20.3H12.5517C11.9718 20.3 11.5017 19.8299 11.5017 19.25Z" fill="#2E3539"/>
</svg>
