<svg width="15" height="15" viewBox="0 0 15 15" fill="none" xmlns="http://www.w3.org/2000/svg">
<g clip-path="url(#clip0_1811_1611)">
<path d="M7.50018 3.33336C8.42066 3.33336 9.16686 2.58716 9.16686 1.66668C9.16686 0.746198 8.42066 0 7.50018 0C6.57969 0 5.8335 0.746198 5.8335 1.66668C5.8335 2.58716 6.57969 3.33336 7.50018 3.33336Z" fill="black"/>
<path d="M7.50018 9.16686C8.42066 9.16686 9.16686 8.42066 9.16686 7.50018C9.16686 6.57969 8.42066 5.8335 7.50018 5.8335C6.57969 5.8335 5.8335 6.57969 5.8335 7.50018C5.8335 8.42066 6.57969 9.16686 7.50018 9.16686Z" fill="black"/>
<path d="M7.50018 14.9999C8.42066 14.9999 9.16686 14.2537 9.16686 13.3332C9.16686 12.4127 8.42066 11.6665 7.50018 11.6665C6.57969 11.6665 5.8335 12.4127 5.8335 13.3332C5.8335 14.2537 6.57969 14.9999 7.50018 14.9999Z" fill="black"/>
</g>
<defs>
<clipPath id="clip0_1811_1611">
<rect width="15" height="15" fill="white"/>
</clipPath>
</defs>
</svg>
