<svg width="24" height="25" viewBox="0 0 24 25" fill="none" xmlns="http://www.w3.org/2000/svg">
<path d="M21.25 9.64999C18.94 6.01999 15.56 3.92999 12 3.92999C10.22 3.92999 8.49 4.44999 6.91 5.41999C5.33 6.39999 3.91 7.82999 2.75 9.64999C1.75 11.22 1.75 13.77 2.75 15.34C5.06 18.98 8.44 21.06 12 21.06C13.78 21.06 15.51 20.54 17.09 19.57C18.67 18.59 20.09 17.16 21.25 15.34C22.25 13.78 22.25 11.22 21.25 9.64999ZM12 16.54C9.76 16.54 7.96 14.73 7.96 12.5C7.96 10.27 9.76 8.45999 12 8.45999C14.24 8.45999 16.04 10.27 16.04 12.5C16.04 14.73 14.24 16.54 12 16.54Z" fill="#818688"/>
<path d="M11.998 9.63999C11.2408 9.63999 10.5146 9.94079 9.97921 10.4762C9.44379 11.0116 9.143 11.7378 9.143 12.495C9.143 13.2522 9.44379 13.9784 9.97921 14.5138C10.5146 15.0492 11.2408 15.35 11.998 15.35C13.568 15.35 14.858 14.07 14.858 12.5C14.858 10.93 13.568 9.63999 11.998 9.63999Z" fill="#818688"/>
</svg>
