<svg width="23" height="22" viewBox="0 0 23 22" fill="none" xmlns="http://www.w3.org/2000/svg">
<g clip-path="url(#clip0_231_1049)">
<path d="M11.7137 9V13.26H17.6338C17.3738 14.63 16.5937 15.7901 15.4237 16.5701L18.9937 19.3401C21.0737 17.4202 22.2737 14.6001 22.2737 11.2501C22.2737 10.4701 22.2038 9.72006 22.0737 9.00012L11.7137 9Z" fill="#4285F4"/>
<path d="M5.54903 13.0938L4.74386 13.7101L1.8938 15.9301C3.7038 19.5201 7.41355 22.0001 11.7135 22.0001C14.6835 22.0001 17.1735 21.0201 18.9935 19.3401L15.4235 16.5701C14.4435 17.2301 13.1935 17.6301 11.7135 17.6301C8.85354 17.6301 6.4236 15.7001 5.55353 13.1001L5.54903 13.0938Z" fill="#34A853"/>
<path d="M1.89379 6.07001C1.14382 7.54995 0.713867 9.21999 0.713867 11C0.713867 12.7799 1.14382 14.45 1.89379 15.9299C1.89379 15.9399 5.55387 13.0899 5.55387 13.0899C5.33387 12.4299 5.20383 11.73 5.20383 10.9999C5.20383 10.2698 5.33387 9.56979 5.55387 8.90979L1.89379 6.07001Z" fill="#FBBC05"/>
<path d="M11.7138 4.38002C13.3338 4.38002 14.7738 4.94001 15.9238 6.02003L19.0738 2.87005C17.1638 1.09007 14.6838 0 11.7138 0C7.41378 0 3.7038 2.47001 1.8938 6.07004L5.55377 8.91006C6.42372 6.31002 8.85377 4.38002 11.7138 4.38002Z" fill="#EA4335"/>
</g>
<defs>
<clipPath id="clip0_231_1049">
<rect width="22" height="22" fill="white" transform="translate(0.5)"/>
</clipPath>
</defs>
</svg>
