<svg width="29" height="28" viewBox="0 0 29 28" fill="#C0C2C4" xmlns="http://www.w3.org/2000/svg">
<path fill-rule="evenodd" clip-rule="evenodd" d="M3.9537 7.73717L10.7451 2.4379C12.4461 1.11309 15.2811 1.05 17.0451 2.2865L24.8319 7.74979C26.0793 8.62038 27.0999 10.5761 27.0999 12.1028V21.2881C27.0999 24.2027 24.7185 26.6 21.7953 26.6H7.2045C4.2813 26.6 1.8999 24.2027 1.8999 21.2755V11.9261C1.8999 10.5004 2.8197 8.62038 3.9537 7.73717ZM19.0359 21.5658C19.871 21.5658 20.5479 21.0009 20.5479 20.304C20.5479 19.6072 19.871 19.0423 19.0359 19.0423H9.9639C9.12885 19.0423 8.4519 19.6072 8.4519 20.304C8.4519 21.0009 9.12885 21.5658 9.9639 21.5658H19.0359Z" />
</svg>
