<svg width="24" height="24" viewBox="0 0 24 24" fill="none" xmlns="http://www.w3.org/2000/svg">
<path fill-rule="evenodd" clip-rule="evenodd" d="M11.5201 3.97163C11.034 3.47613 10.246 3.47613 9.75988 3.97163L2.76445 11.1028C2.53104 11.3408 2.3999 11.6635 2.3999 12C2.3999 12.3365 2.53104 12.6592 2.76445 12.8972L9.75988 20.0284C10.246 20.5239 11.034 20.5239 11.5201 20.0284C12.0062 19.5329 12.0062 18.7295 11.5201 18.234L6.64942 13.2688H20.3552C21.0427 13.2688 21.5999 12.7008 21.5999 12C21.5999 11.2993 21.0427 10.7312 20.3552 10.7312H6.64942L11.5201 5.766C12.0062 5.2705 12.0062 4.46713 11.5201 3.97163Z" fill="#131517"/>
</svg>
