<svg width="24" height="25" viewBox="0 0 24 25" fill="none" xmlns="http://www.w3.org/2000/svg">
<path d="M12.001 17.85C12.4333 17.85 12.8479 17.6783 13.1536 17.3726C13.4593 17.0669 13.631 16.6523 13.631 16.22C13.631 15.7877 13.4593 15.3731 13.1536 15.0674C12.8479 14.7617 12.4333 14.59 12.001 14.59C11.5687 14.59 11.1541 14.7617 10.8484 15.0674C10.5427 15.3731 10.371 15.7877 10.371 16.22C10.371 16.6523 10.5427 17.0669 10.8484 17.3726C11.1541 17.6783 11.5687 17.85 12.001 17.85Z" fill="#818688"/>
<path d="M18.28 10.03V8.78C18.28 6.08 17.63 2.5 12 2.5C6.37 2.5 5.72 6.08 5.72 8.78V10.03C2.92 10.38 2 11.8 2 15.29V17.15C2 21.25 3.25 22.5 7.35 22.5H16.65C20.75 22.5 22 21.25 22 17.15V15.29C22 11.8 21.08 10.38 18.28 10.03ZM12 19.24C10.33 19.24 8.98 17.88 8.98 16.22C8.98 14.55 10.34 13.2 12 13.2C12.8001 13.2026 13.5668 13.5217 14.1326 14.0875C14.6983 14.6532 15.0174 15.4199 15.02 16.22C15.02 17.89 13.67 19.24 12 19.24ZM7.35 9.94H7.12V8.78C7.12 5.85 7.95 3.9 12 3.9C16.05 3.9 16.88 5.85 16.88 8.78V9.95H7.35V9.94Z" fill="#818688"/>
</svg>
