<svg width="72" height="36" viewBox="0 0 72 36" fill="none" xmlns="http://www.w3.org/2000/svg">
<path d="M5.42601 23.3489H2.48134V15.1375H0.857178V12.5496H7.11372V15.1375H5.42601V23.3489Z" fill="#4897E9"/>
<path d="M14.6648 23.3489H11.7201V19.0054H10.3149V23.3489H7.3702V12.5496H10.3149V16.3685H11.7201V12.5496H14.6648V23.3489Z" fill="#4897E9"/>
<path d="M15.691 23.3489V12.5496H21.1637V15.0886H18.6356V16.6623H20.9024V19.1033H18.6356V20.754H21.1637V23.3489H15.691Z" fill="#4897E9"/>
<path d="M4.56454 10.8867H1.61987V0.0873489H6.82424V2.62631H4.56454V4.20005H6.66889V6.64108H4.56454V10.8867Z" fill="#4897E9"/>
<path d="M10.4138 10.8867H7.46911V0.0873489H10.4138V10.8867Z" fill="#4897E9"/>
<path d="M11.44 10.8867V0.0873489H14.2505L15.7263 3.8783C15.8064 4.10212 15.8958 4.35858 15.9947 4.64769C16.0982 4.93679 16.2112 5.27019 16.3336 5.64788L16.6373 6.59912C16.529 5.66187 16.4466 4.85985 16.3901 4.19305C16.3336 3.52625 16.3054 2.9667 16.3054 2.5144V0.0873489H19.1159V10.8867H16.3054L14.8225 6.91387C14.6671 6.48954 14.5259 6.09319 14.3988 5.72482C14.2764 5.35179 14.1681 4.99741 14.0739 4.66167C14.1351 5.42173 14.1798 6.08387 14.2081 6.64808C14.2363 7.21229 14.2505 7.70656 14.2505 8.13089V10.8867H11.44Z" fill="#4897E9"/>
<path d="M20.1421 10.8867V0.0873489H22.6842C24.1389 0.0873489 25.2711 0.474371 26.0808 1.24842C27.1448 2.26027 27.6768 3.67547 27.6768 5.49401C27.6768 7.28457 27.2272 8.66712 26.328 9.64167C25.5606 10.4717 24.4167 10.8867 22.8961 10.8867H20.1421ZM23.0867 8.27777C24.1413 8.22648 24.6685 7.32653 24.6685 5.57794C24.6685 4.7153 24.5344 4.03451 24.266 3.53558C23.9977 3.03198 23.6352 2.78019 23.1785 2.78019H23.0867V8.27777Z" fill="#4897E9"/>
<path d="M27.4145 23.349H24.4698V12.5497H27.3227C28.7444 12.5497 29.799 12.8364 30.4863 13.41C31.296 14.0861 31.7009 15.0257 31.7009 16.2287C31.7009 17.539 31.2701 18.5159 30.4086 19.1594C29.8202 19.593 28.9751 19.8098 27.8735 19.8098H27.4145V23.349ZM27.4145 17.3828L27.5487 17.3898C27.9065 17.3898 28.1913 17.2825 28.4031 17.068C28.615 16.8489 28.7209 16.5505 28.7209 16.1728C28.7209 15.7997 28.6173 15.4966 28.4102 15.2635C28.2031 15.0257 27.9394 14.9068 27.6193 14.9068H27.4145V17.3828Z" fill="#4897E9"/>
<path d="M32.2257 23.349V12.5497H37.6984V15.0886H35.1704V16.6624H37.4371V19.1034H35.1704V20.7541H37.6984V23.349H32.2257Z" fill="#4897E9"/>
<path d="M46.2099 23.349H43.0251L41.5704 19.5021C41.5563 19.4368 41.5304 19.3506 41.4927 19.2433C41.4598 19.1361 41.4174 19.0078 41.3656 18.8586L41.3868 19.572V23.349H38.4563V12.5497H41.4715C42.7991 12.5497 43.7924 12.8085 44.4515 13.3261C45.2895 13.9882 45.7085 14.9301 45.7085 16.1518C45.7085 17.4574 45.1459 18.3597 44.0208 18.8586L46.2099 23.349ZM41.4009 17.5507H41.5987C41.9376 17.5507 42.2201 17.4224 42.446 17.166C42.672 16.9095 42.785 16.5831 42.785 16.1868C42.785 15.3801 42.3589 14.9767 41.5069 14.9767H41.4009V17.5507Z" fill="#4897E9"/>
<path d="M49.6228 23.349H46.6782V12.5497H51.8825V15.0886H49.6228V16.6624H51.7272V19.1034H49.6228V23.349Z" fill="#4897E9"/>
<path d="M52.5274 23.349V12.5497H58.0001V15.0886H55.4721V16.6624H57.7388V19.1034H55.4721V20.7541H58.0001V23.349H52.5274Z" fill="#4897E9"/>
<path d="M64.8874 20.0267L64.7179 23.1462C64.0636 23.4073 63.4774 23.5379 62.9596 23.5379C61.7403 23.5379 60.714 23.0949 59.8808 22.2089C58.9486 21.2157 58.4826 19.8098 58.4826 17.9913C58.4826 16.2893 58.9204 14.9231 59.796 13.8926C60.6716 12.8668 61.8415 12.3538 63.3056 12.3538C63.7811 12.3538 64.266 12.4424 64.7603 12.6196V15.7041C64.3225 15.2705 63.8729 15.0537 63.4115 15.0537C62.8089 15.0537 62.3382 15.3078 61.9992 15.8161C61.6603 16.329 61.4908 17.0377 61.4908 17.9423C61.4908 18.3807 61.5332 18.7723 61.6179 19.1174C61.7026 19.4625 61.8227 19.7539 61.978 19.9917C62.1381 20.2295 62.3335 20.4114 62.5641 20.5373C62.7948 20.6632 63.0585 20.7261 63.355 20.7261C63.8635 20.7261 64.3743 20.493 64.8874 20.0267Z" fill="#4897E9"/>
<path d="M69.3455 23.349H66.4008V15.1376H64.7767V12.5497H71.0332V15.1376H69.3455V23.349Z" fill="#4897E9"/>
<path d="M40.8728 30.4465C40.8728 32.0925 40.4938 33.4307 39.7359 34.4612C38.9826 35.4871 38.0011 36 36.7912 36C35.7179 36 34.7975 35.606 34.0301 34.8179C33.0651 33.8201 32.5825 32.3233 32.5825 30.3276C32.5825 28.4158 33.0862 26.9539 34.0937 25.9421C34.8422 25.1913 35.7296 24.816 36.7559 24.816C38.0129 24.816 39.0132 25.3242 39.7571 26.3408C40.5009 27.3573 40.8728 28.7258 40.8728 30.4465ZM37.8151 30.4674C37.8151 28.5137 37.4668 27.5368 36.77 27.5368C36.4217 27.5368 36.1439 27.7933 35.9368 28.3062C35.7343 28.7818 35.6331 29.4812 35.6331 30.4045C35.6331 31.3138 35.7273 32.0202 35.9156 32.5238C36.1086 33.0227 36.3746 33.2722 36.7135 33.2722C37.0619 33.2722 37.3302 33.0251 37.5186 32.5308C37.7163 32.0365 37.8151 31.3487 37.8151 30.4674Z" fill="#4897E9"/>
<path d="M46.0794 25.0118H49.0241V32.6497C49.0241 33.2885 48.9229 33.8061 48.7204 34.2024C48.5227 34.6174 48.1932 34.9928 47.7318 35.3285C47.1104 35.7762 46.3548 36 45.4651 36C44.4576 36 43.6126 35.7529 42.93 35.2586C42.0637 34.6291 41.6306 33.6219 41.6306 32.237V25.0118H44.5753V31.9782C44.5753 32.4492 44.6318 32.7826 44.7448 32.9784C44.8625 33.1743 45.0579 33.2722 45.3309 33.2722C45.6134 33.2722 45.8087 33.1813 45.917 32.9994C46.0253 32.8082 46.0794 32.4702 46.0794 31.9852V25.0118Z" fill="#4897E9"/>
<path d="M53.8565 35.8111H50.9118V27.5997H49.2876V25.0118H55.5442V27.5997H53.8565V35.8111Z" fill="#4897E9"/>
<path d="M58.7453 35.8111H55.8007V25.0118H61.005V27.5508H58.7453V29.1245H60.8497V31.5656H58.7453V35.8111Z" fill="#4897E9"/>
<path d="M64.5946 35.8111H61.6499V25.0118H64.5946V35.8111Z" fill="#4897E9"/>
<path d="M69.4269 35.8111H66.4823V27.5997H64.8581V25.0118H71.1146V27.5997H69.4269V35.8111Z" fill="#4897E9"/>
<path fill-rule="evenodd" clip-rule="evenodd" d="M71.1429 10.8866L28.1906 10.8866L28.1906 10.1704L71.1429 10.1704L71.1429 10.8866Z" fill="#4897E9"/>
<path fill-rule="evenodd" clip-rule="evenodd" d="M71.1429 0.716221L28.1906 0.716225L28.1906 0L71.1429 -3.75502e-06L71.1429 0.716221Z" fill="#4897E9"/>
<path fill-rule="evenodd" clip-rule="evenodd" d="M32.0953 26.0705H0.857178V25.3543H32.0953V26.0705Z" fill="#4897E9"/>
<path fill-rule="evenodd" clip-rule="evenodd" d="M32.0953 35.8112H0.857178V35.095H32.0953V35.8112Z" fill="#4897E9"/>
</svg>
