<svg width="20" height="21" viewBox="0 0 20 21" fill="none" xmlns="http://www.w3.org/2000/svg">
<path d="M10.001 15.85C10.4333 15.85 10.8479 15.6783 11.1536 15.3726C11.4593 15.0669 11.631 14.6523 11.631 14.22C11.631 13.7877 11.4593 13.3731 11.1536 13.0674C10.8479 12.7617 10.4333 12.59 10.001 12.59C9.5687 12.59 9.1541 12.7617 8.84842 13.0674C8.54273 13.3731 8.371 13.7877 8.371 14.22C8.371 14.6523 8.54273 15.0669 8.84842 15.3726C9.1541 15.6783 9.5687 15.85 10.001 15.85Z" fill="#818688"/>
<path d="M16.28 8.03V6.78C16.28 4.08 15.63 0.5 10 0.5C4.37 0.5 3.72 4.08 3.72 6.78V8.03C0.92 8.38 0 9.8 0 13.29V15.15C0 19.25 1.25 20.5 5.35 20.5H14.65C18.75 20.5 20 19.25 20 15.15V13.29C20 9.8 19.08 8.38 16.28 8.03ZM10 17.24C8.33 17.24 6.98 15.88 6.98 14.22C6.98 12.55 8.34 11.2 10 11.2C10.8001 11.2026 11.5668 11.5217 12.1326 12.0875C12.6983 12.6532 13.0174 13.4199 13.02 14.22C13.02 15.89 11.67 17.24 10 17.24ZM5.35 7.94H5.12V6.78C5.12 3.85 5.95 1.9 10 1.9C14.05 1.9 14.88 3.85 14.88 6.78V7.95H5.35V7.94Z" fill="#818688"/>
</svg>
