<svg width="19" height="21" viewBox="0 0 19 21" fill="none" xmlns="http://www.w3.org/2000/svg">
<path fill-rule="evenodd" clip-rule="evenodd" d="M9.2817 2.58861C7.51968 2.58861 6.09129 4.017 6.09129 5.77901C6.09129 7.54102 7.51968 8.96942 9.2817 8.96942C11.0437 8.96942 12.4721 7.54102 12.4721 5.77901C12.4721 4.017 11.0437 2.58861 9.2817 2.58861ZM3.96436 5.77901C3.96436 2.84232 6.34501 0.46167 9.2817 0.46167C12.2184 0.46167 14.599 2.84232 14.599 5.77901C14.599 8.7157 12.2184 11.0964 9.2817 11.0964C6.34501 11.0964 3.96436 8.7157 3.96436 5.77901Z" fill="#000"/>
<path fill-rule="evenodd" clip-rule="evenodd" d="M3.57197 14.6837C5.23385 13.7273 7.2403 13.2234 9.28161 13.2234C11.3229 13.2234 13.3294 13.7273 14.9912 14.6837C16.6525 15.6398 17.9157 17.0202 18.5009 18.6584C18.6985 19.2115 18.4104 19.8201 17.8573 20.0177C17.3042 20.2153 16.6956 19.9271 16.498 19.374C16.1138 18.2986 15.2407 17.2813 13.9303 16.5272C12.6206 15.7734 10.986 15.3503 9.28161 15.3503C7.57723 15.3503 5.94265 15.7734 4.63287 16.5272C3.32248 17.2813 2.44943 18.2986 2.06523 19.374C1.86763 19.9271 1.25906 20.2153 0.705966 20.0177C0.152867 19.8201 -0.135319 19.2115 0.0622844 18.6584C0.647546 17.0202 1.91071 15.6397 3.57197 14.6837Z" fill="#000"/>
</svg>
