<svg width="22" height="22" viewBox="0 0 22 22" fill="none" xmlns="http://www.w3.org/2000/svg">
<path fill-rule="evenodd" clip-rule="evenodd" d="M20.8936 21.4881C20.4849 21.904 19.8224 21.904 19.4138 21.4881L17.0885 19.1214C16.6799 18.7055 16.6799 18.0312 17.0885 17.6153C17.4972 17.1994 18.1597 17.1994 18.5683 17.6153L20.8936 19.9819C21.3022 20.3978 21.3022 21.0722 20.8936 21.4881Z" fill="#818688"/>
<path fill-rule="evenodd" clip-rule="evenodd" d="M10.1011 17.0033C14.0821 17.0033 17.3094 13.7186 17.3094 9.66665C17.3094 5.61473 14.0821 2.32999 10.1011 2.32999C6.12005 2.32999 2.89278 5.61473 2.89278 9.66665C2.89278 13.7186 6.12005 17.0033 10.1011 17.0033ZM10.1011 19.1333C15.2379 19.1333 19.4021 14.8949 19.4021 9.66665C19.4021 4.43836 15.2379 0.199997 10.1011 0.199997C4.96426 0.199997 0.800049 4.43836 0.800049 9.66665C0.800049 14.8949 4.96426 19.1333 10.1011 19.1333Z" fill="#818688"/>
</svg>
