<svg width="24" height="24" viewBox="0 0 24 24" fill="none" xmlns="http://www.w3.org/2000/svg">
<path fill-rule="evenodd" clip-rule="evenodd" d="M21.8936 22.4881C21.4849 22.904 20.8224 22.904 20.4138 22.4881L18.0885 20.1214C17.6799 19.7055 17.6799 19.0312 18.0885 18.6153C18.4972 18.1994 19.1597 18.1994 19.5683 18.6153L21.8936 20.9819C22.3022 21.3978 22.3022 22.0722 21.8936 22.4881Z" fill="#818688"/>
<path fill-rule="evenodd" clip-rule="evenodd" d="M11.1011 18.0033C15.0821 18.0033 18.3094 14.7186 18.3094 10.6666C18.3094 6.61473 15.0821 3.32999 11.1011 3.32999C7.12005 3.32999 3.89278 6.61473 3.89278 10.6666C3.89278 14.7186 7.12005 18.0033 11.1011 18.0033ZM11.1011 20.1333C16.2379 20.1333 20.4021 15.8949 20.4021 10.6666C20.4021 5.43836 16.2379 1.2 11.1011 1.2C5.96426 1.2 1.80005 5.43836 1.80005 10.6666C1.80005 15.8949 5.96426 20.1333 11.1011 20.1333Z" fill="#818688"/>
</svg>
