<svg width="20" height="19" viewBox="0 0 20 19" fill="none" xmlns="http://www.w3.org/2000/svg">
<path d="M19.25 6.64999C16.94 3.01999 13.56 0.929993 10 0.929993C8.22 0.929993 6.49 1.44999 4.91 2.41999C3.33 3.39999 1.91 4.82999 0.75 6.64999C-0.25 8.21999 -0.25 10.77 0.75 12.34C3.06 15.98 6.44 18.06 10 18.06C11.78 18.06 13.51 17.54 15.09 16.57C16.67 15.59 18.09 14.16 19.25 12.34C20.25 10.78 20.25 8.21999 19.25 6.64999ZM10 13.54C7.76 13.54 5.96 11.73 5.96 9.49999C5.96 7.26999 7.76 5.45999 10 5.45999C12.24 5.45999 14.04 7.26999 14.04 9.49999C14.04 11.73 12.24 13.54 10 13.54Z" fill="#818688"/>
<path d="M9.998 6.63999C9.24081 6.63999 8.51463 6.94079 7.97921 7.4762C7.44379 8.01162 7.143 8.7378 7.143 9.49499C7.143 10.2522 7.44379 10.9784 7.97921 11.5138C8.51463 12.0492 9.24081 12.35 9.998 12.35C11.568 12.35 12.858 11.07 12.858 9.49999C12.858 7.92999 11.568 6.63999 9.998 6.63999Z" fill="#818688"/>
</svg>
